<svg id="visual" viewBox="0 0 960 540" width="960" height="540" xmlns="http://www.w3.org/2000/svg" xmlns:xlink="http://www.w3.org/1999/xlink" version="1.1"><rect x="0" y="0" width="960" height="540" fill="#ffecdc"></rect><defs><linearGradient id="grad1_0" x1="43.8%" y1="0%" x2="100%" y2="100%"><stop offset="14.444444444444446%" stop-color="#ffa274" stop-opacity="1"></stop><stop offset="85.55555555555554%" stop-color="#ffa274" stop-opacity="1"></stop></linearGradient></defs><defs><linearGradient id="grad1_1" x1="43.8%" y1="0%" x2="100%" y2="100%"><stop offset="14.444444444444446%" stop-color="#ffa274" stop-opacity="1"></stop><stop offset="85.55555555555554%" stop-color="#ffbc93" stop-opacity="1"></stop></linearGradient></defs><defs><linearGradient id="grad1_2" x1="43.8%" y1="0%" x2="100%" y2="100%"><stop offset="14.444444444444446%" stop-color="#ffd5b6" stop-opacity="1"></stop><stop offset="85.55555555555554%" stop-color="#ffbc93" stop-opacity="1"></stop></linearGradient></defs><defs><linearGradient id="grad1_3" x1="43.8%" y1="0%" x2="100%" y2="100%"><stop offset="14.444444444444446%" stop-color="#ffd5b6" stop-opacity="1"></stop><stop offset="85.55555555555554%" stop-color="#ffecdc" stop-opacity="1"></stop></linearGradient></defs><defs><linearGradient id="grad2_0" x1="0%" y1="0%" x2="56.3%" y2="100%"><stop offset="14.444444444444446%" stop-color="#ffa274" stop-opacity="1"></stop><stop offset="85.55555555555554%" stop-color="#ffa274" stop-opacity="1"></stop></linearGradient></defs><defs><linearGradient id="grad2_1" x1="0%" y1="0%" x2="56.3%" y2="100%"><stop offset="14.444444444444446%" stop-color="#ffbc93" stop-opacity="1"></stop><stop offset="85.55555555555554%" stop-color="#ffa274" stop-opacity="1"></stop></linearGradient></defs><defs><linearGradient id="grad2_2" x1="0%" y1="0%" x2="56.3%" y2="100%"><stop offset="14.444444444444446%" stop-color="#ffbc93" stop-opacity="1"></stop><stop offset="85.55555555555554%" stop-color="#ffd5b6" stop-opacity="1"></stop></linearGradient></defs><defs><linearGradient id="grad2_3" x1="0%" y1="0%" x2="56.3%" y2="100%"><stop offset="14.444444444444446%" stop-color="#ffecdc" stop-opacity="1"></stop><stop offset="85.55555555555554%" stop-color="#ffd5b6" stop-opacity="1"></stop></linearGradient></defs><g transform="translate(960, 0)"><path d="M0 432C-52.9 420.7 -105.8 409.4 -162.3 391.7C-218.7 374.1 -278.8 350.1 -305.5 305.5C-332.1 260.8 -325.4 195.6 -340.9 141.2C-356.4 86.9 -394.2 43.4 -432 0L0 0Z" fill="#ffe0c8"></path><path d="M0 324C-39.7 315.5 -79.3 307 -121.7 293.8C-164.1 280.6 -209.1 262.6 -229.1 229.1C-249.1 195.6 -244 146.7 -255.7 105.9C-267.3 65.1 -295.7 32.6 -324 0L0 0Z" fill="#ffc9a4"></path><path d="M0 216C-26.4 210.3 -52.9 204.7 -81.1 195.9C-109.4 187 -139.4 175 -152.7 152.7C-166.1 130.4 -162.7 97.8 -170.5 70.6C-178.2 43.4 -197.1 21.7 -216 0L0 0Z" fill="#ffaf83"></path><path d="M0 108C-13.2 105.2 -26.4 102.3 -40.6 97.9C-54.7 93.5 -69.7 87.5 -76.4 76.4C-83 65.2 -81.3 48.9 -85.2 35.3C-89.1 21.7 -98.6 10.9 -108 0L0 0Z" fill="#ffa274"></path></g><g transform="translate(0, 540)"><path d="M0 -432C46.6 -401 93.1 -369.9 146.2 -352.9C199.3 -335.9 258.8 -333 304.1 -304.1C349.3 -275.2 380.2 -220.3 399.1 -165.3C418.1 -110.3 425 -55.2 432 0L0 0Z" fill="#ffe0c8"></path><path d="M0 -324C34.9 -300.7 69.8 -277.4 109.6 -264.7C149.4 -251.9 194.1 -249.7 228 -228C262 -206.4 285.1 -165.2 299.3 -124C313.5 -82.7 318.8 -41.4 324 0L0 0Z" fill="#ffc9a4"></path><path d="M0 -216C23.3 -200.5 46.6 -185 73.1 -176.5C99.6 -168 129.4 -166.5 152 -152C174.6 -137.6 190.1 -110.2 199.6 -82.7C209 -55.2 212.5 -27.6 216 0L0 0Z" fill="#ffaf83"></path><path d="M0 -108C11.6 -100.2 23.3 -92.5 36.5 -88.2C49.8 -84 64.7 -83.2 76 -76C87.3 -68.8 95 -55.1 99.8 -41.3C104.5 -27.6 106.3 -13.8 108 0L0 0Z" fill="#ffa274"></path></g></svg>