<svg id="visual" viewBox="0 0 960 540" width="960" height="540" xmlns="http://www.w3.org/2000/svg" xmlns:xlink="http://www.w3.org/1999/xlink" version="1.1"><rect x="0" y="0" width="960" height="540" fill="#ddecf9"></rect><defs><linearGradient id="grad1_0" x1="43.8%" y1="0%" x2="100%" y2="100%"><stop offset="14.444444444444446%" stop-color="#9bcfff" stop-opacity="1"></stop><stop offset="85.55555555555554%" stop-color="#9bcfff" stop-opacity="1"></stop></linearGradient></defs><defs><linearGradient id="grad1_1" x1="43.8%" y1="0%" x2="100%" y2="100%"><stop offset="14.444444444444446%" stop-color="#9bcfff" stop-opacity="1"></stop><stop offset="85.55555555555554%" stop-color="#b1d9fd" stop-opacity="1"></stop></linearGradient></defs><defs><linearGradient id="grad1_2" x1="43.8%" y1="0%" x2="100%" y2="100%"><stop offset="14.444444444444446%" stop-color="#c7e3fb" stop-opacity="1"></stop><stop offset="85.55555555555554%" stop-color="#b1d9fd" stop-opacity="1"></stop></linearGradient></defs><defs><linearGradient id="grad1_3" x1="43.8%" y1="0%" x2="100%" y2="100%"><stop offset="14.444444444444446%" stop-color="#c7e3fb" stop-opacity="1"></stop><stop offset="85.55555555555554%" stop-color="#ddecf9" stop-opacity="1"></stop></linearGradient></defs><defs><linearGradient id="grad2_0" x1="0%" y1="0%" x2="56.3%" y2="100%"><stop offset="14.444444444444446%" stop-color="#9bcfff" stop-opacity="1"></stop><stop offset="85.55555555555554%" stop-color="#9bcfff" stop-opacity="1"></stop></linearGradient></defs><defs><linearGradient id="grad2_1" x1="0%" y1="0%" x2="56.3%" y2="100%"><stop offset="14.444444444444446%" stop-color="#b1d9fd" stop-opacity="1"></stop><stop offset="85.55555555555554%" stop-color="#9bcfff" stop-opacity="1"></stop></linearGradient></defs><defs><linearGradient id="grad2_2" x1="0%" y1="0%" x2="56.3%" y2="100%"><stop offset="14.444444444444446%" stop-color="#b1d9fd" stop-opacity="1"></stop><stop offset="85.55555555555554%" stop-color="#c7e3fb" stop-opacity="1"></stop></linearGradient></defs><defs><linearGradient id="grad2_3" x1="0%" y1="0%" x2="56.3%" y2="100%"><stop offset="14.444444444444446%" stop-color="#ddecf9" stop-opacity="1"></stop><stop offset="85.55555555555554%" stop-color="#c7e3fb" stop-opacity="1"></stop></linearGradient></defs><g transform="translate(960, 0)"><path d="M0 432C-56.4 426.1 -112.8 420.1 -165.3 399.1C-217.8 378.1 -266.5 342 -297.7 297.7C-328.9 253.4 -342.7 201 -362.2 150C-381.6 99 -406.8 49.5 -432 0L0 0Z" fill="#d2e7fa"></path><path d="M0 324C-42.3 319.6 -84.6 315.1 -124 299.3C-163.4 283.6 -199.9 256.5 -223.3 223.3C-246.7 190.1 -257 150.7 -271.6 112.5C-286.2 74.3 -305.1 37.1 -324 0L0 0Z" fill="#bcdefc"></path><path d="M0 216C-28.2 213 -56.4 210.1 -82.7 199.6C-108.9 189 -133.2 171 -148.8 148.8C-164.5 126.7 -171.3 100.5 -181.1 75C-190.8 49.5 -203.4 24.8 -216 0L0 0Z" fill="#a6d4fe"></path><path d="M0 108C-14.1 106.5 -28.2 105 -41.3 99.8C-54.5 94.5 -66.6 85.5 -74.4 74.4C-82.2 63.4 -85.7 50.2 -90.5 37.5C-95.4 24.8 -101.7 12.4 -108 0L0 0Z" fill="#9bcfff"></path></g><g transform="translate(0, 540)"><path d="M0 -432C57.9 -426.5 115.8 -421.1 164.9 -398.2C214 -375.3 254.3 -335.1 294.9 -294.9C335.4 -254.6 376.2 -214.5 399.1 -165.3C422 -116.2 427 -58.1 432 0L0 0Z" fill="#d2e7fa"></path><path d="M0 -324C43.4 -319.9 86.9 -315.8 123.7 -298.6C160.5 -281.5 190.7 -251.3 221.1 -221.1C251.6 -191 282.2 -160.8 299.3 -124C316.5 -87.1 320.3 -43.6 324 0L0 0Z" fill="#bcdefc"></path><path d="M0 -216C29 -213.3 57.9 -210.5 82.5 -199.1C107 -187.7 127.2 -167.5 147.4 -147.4C167.7 -127.3 188.1 -107.2 199.6 -82.7C211 -58.1 213.5 -29 216 0L0 0Z" fill="#a6d4fe"></path><path d="M0 -108C14.5 -106.6 29 -105.3 41.2 -99.5C53.5 -93.8 63.6 -83.8 73.7 -73.7C83.9 -63.7 94.1 -53.6 99.8 -41.3C105.5 -29 106.8 -14.5 108 0L0 0Z" fill="#9bcfff"></path></g></svg>